# xmcd
#
# Track frame offsets: 
#        150
#        12180
#        23374
#        36730
#        50375
#        64025
#        75928
#        87100
#        99005
#        109044
#        120912
#        130043
#        138973
#        152175
#        161914
#        174654
#        186711
#        199111
#        209409
#        222709
#        235701
#        245516
#        256931
#        268491
#        278960
#        290319
#        303127
#        314169
#
# Disc length: 4339 seconds
#
# Revision: 1
# Processed by: cddbd v1.5.2PL0 Copyright (c) Steve Scherf et al.
# Submitted via: ExactAudioCopy v0.99pb2
#
DISCID=9110f11c
DTITLE=Various Artist - The Complete Motown Singles Volume 4 [CD19)
DYEAR=2006
DGENRE=R&B/Soul
TTITLE0=Martha and The Vandellas - Dancing In The Street
TTITLE1=Martha and The Vandellas - There He Is (At My Door)
TTITLE2=Tommy Good - Baby I Miss You
TTITLE3=Tommy Good - Leaving Here
TTITLE4=Carolyn Crawford - My Smile Is Just A Frown Turned Upside Down
TTITLE5=Carolyn Crawford - I'll Come Running
TTITLE6=Kim Weston - Looking For The Right Guy
TTITLE7=Kim Weston - Feel Alright Tonight
TTITLE8=The Temptations - Girl (Why You Wanna Make Me Blue)
TTITLE9=The Temptations - Baby Baby I Need You
TTITLE10=Howard Crockett - My Lil's Run Off
TTITLE11=Howard Crockett - Spanish Lace And Memories
TTITLE12=Jr. Walker and The All Stars - Satan's Blues
TTITLE13=Jr. Walker and The All Stars - Monkey Jump
TTITLE14=Sammy Ward - Bread Winner
TTITLE15=Sammy Ward - You've Got To Change
TTITLE16=Shorty Long - It's A Crying Shame (The Way You Treat A Good M
TTITLE16=an Like Me)
TTITLE17=Shorty Long - Out To Get You
TTITLE18=The Miracles - That's What Love Is Made Of
TTITLE19=The Miracles - Would I Love You
TTITLE20=Oma Heard - Lifetime Man
TTITLE21=Oma Heard - Mr. Lonely Heart
TTITLE22=Marvin Gaye - Baby Don't You Do It
TTITLE23=Marvin Gaye - Walk On The Wild Side
TTITLE24=The Velvelettes - Needle In A Haystack
TTITLE25=The Velvelettes - Should I Tell Them
TTITLE26=Stevie Wonder - Happy Street
TTITLE27=Stevie Wonder - Sad Boy
EXTD=
EXTT0=
EXTT1=
EXTT2=
EXTT3=
EXTT4=
EXTT5=
EXTT6=
EXTT7=
EXTT8=
EXTT9=
EXTT10=
EXTT11=
EXTT12=
EXTT13=
EXTT14=
EXTT15=
EXTT16=
EXTT17=
EXTT18=
EXTT19=
EXTT20=
EXTT21=
EXTT22=
EXTT23=
EXTT24=
EXTT25=
EXTT26=
EXTT27=
PLAYORDER=
